<?xml version="1.0" encoding="UTF-8" standalone="no"?>
<!-- Created with Inkscape (http://www.inkscape.org/) -->

<svg
   xmlns:dc="http://purl.org/dc/elements/1.1/"
   xmlns:cc="http://creativecommons.org/ns#"
   xmlns:rdf="http://www.w3.org/1999/02/22-rdf-syntax-ns#"
   xmlns:svg="http://www.w3.org/2000/svg"
   xmlns="http://www.w3.org/2000/svg"
   xmlns:sodipodi="http://sodipodi.sourceforge.net/DTD/sodipodi-0.dtd"
   xmlns:inkscape="http://www.inkscape.org/namespaces/inkscape"
   width="744.09448819"
   height="1052.3622047"
   id="svg2"
   version="1.1"
   inkscape:version="0.48.5 r10040"
   sodipodi:docname="ualr-logo.svg">
  <defs
     id="defs4" />
  <sodipodi:namedview
     id="base"
     pagecolor="#ffffff"
     bordercolor="#666666"
     borderopacity="1.0"
     inkscape:pageopacity="0.0"
     inkscape:pageshadow="2"
     inkscape:zoom="1.514758"
     inkscape:cx="258.14965"
     inkscape:cy="176.71084"
     inkscape:document-units="px"
     inkscape:current-layer="layer1"
     showgrid="false"
     inkscape:window-width="1865"
     inkscape:window-height="1056"
     inkscape:window-x="55"
     inkscape:window-y="24"
     inkscape:window-maximized="1" />
  <metadata
     id="metadata7">
    <rdf:RDF>
      <cc:Work
         rdf:about="">
        <dc:format>image/svg+xml</dc:format>
        <dc:type
           rdf:resource="http://purl.org/dc/dcmitype/StillImage" />
        <dc:title></dc:title>
      </cc:Work>
    </rdf:RDF>
  </metadata>
  <g
     inkscape:label="Layer 1"
     inkscape:groupmode="layer"
     id="layer1">
    <rect
       style="fill:none;stroke:none"
       id="rect3052"
       width="128"
       height="128"
       x="0.18112853"
       y="924"
       inkscape:export-filename="/home/cpt/eac_dev/ieee_vr_vuforia/images/ualr-logo-128.png"
       inkscape:export-xdpi="90"
       inkscape:export-ydpi="90" />
    <path
       style="fill:#4d4d4d"
       d="m 35.377047,1037.5958 c 0.358672,-0.2333 0.916033,-0.4271 1.238578,-0.4307 1.304582,-0.015 3.626338,-1.509 4.323788,-2.7825 0.666353,-1.2168 0.741675,-3.2405 0.741675,-19.9244 0,-22.14612 0.162135,-21.43987 -4.067201,-17.71701 -3.072073,2.70414 -9.050321,9.11171 -13.371489,14.33151 -6.206025,7.4968 -10.631317,14.0585 -14.807224,21.9555 -2.4538894,4.6405 -2.7087903,4.7177 -1.6430653,0.4975 3.2399523,-12.8299 11.3196493,-25.7254 24.4977743,-39.09906 5.634354,-5.71795 6.402105,-6.67751 4.98634,-6.23185 -5.725024,1.80188 -15.137437,1.33438 -19.569635,-0.97218 -3.073026,-1.59921 -5.72975,-4.6817 -7.244312,-8.40528 C 9.5710799,976.62632 9.5120111,975.6444 9.2986869,959.47556 9.0815805,943.01988 9.0429095,942.40044 8.1590783,941.21766 7.6208758,940.49742 6.4135287,939.72398 5.226646,939.3391 c -1.1096455,-0.35983 -2.0185428,-0.80097 -2.0197623,-0.98031 -9.527e-4,-0.17934 4.3997489,-0.32607 9.7799253,-0.32607 5.380177,0 9.781117,0.14673 9.77986,0.32607 -9.53e-4,0.17934 -0.927676,0.61953 -2.05871,0.97822 -1.473595,0.46731 -2.343316,1.08245 -3.06871,2.17045 l -1.012287,1.51832 0.14511,16.30692 c 0.142498,16.01473 0.163734,16.3536 1.185263,18.91228 0.713246,1.7865 1.803656,3.36809 3.469348,5.03207 2.074563,2.07247 2.856901,2.54231 5.359255,3.21853 2.137938,0.57775 3.696745,0.72023 5.765906,0.52701 7.049565,-0.6583 10.560338,-3.27842 12.922157,-9.64393 0.911755,-2.45733 0.976721,-3.41509 1.120516,-16.52033 0.08393,-7.65148 0.02563,-14.75877 -0.129599,-15.79398 -0.383461,-2.55705 -2.610022,-4.997 -5.22918,-5.73031 -1.082531,-0.30309 -2.072562,-0.71988 -2.200074,-0.9262 -0.127513,-0.20632 3.49692,-0.37512 8.054288,-0.37512 5.234257,0 8.286142,0.16012 8.286142,0.43476 0,0.23912 -0.30126,0.43476 -0.669469,0.43476 -1.323588,0 -4.108196,1.77309 -4.757972,3.02964 -1.019099,1.9707 -1.443413,6.59802 -1.735461,18.92583 -0.289332,12.21324 -0.677595,15.8809 -1.996935,18.86347 -0.467624,1.05715 -0.76395,2.00838 -0.658502,2.11383 0.105456,0.10545 2.369573,-1.42675 5.031375,-3.4049 3.122424,-2.32047 5.047143,-4.07067 5.424459,-4.93261 0.321649,-0.73479 3.156113,-7.20526 6.298801,-14.37883 3.793342,-8.65875 5.661811,-13.42657 5.558736,-14.18441 -0.126121,-0.92741 0.123645,-1.29175 1.331506,-1.94222 1.161569,-0.62554 3.380527,-2.9281 4.744378,-4.92309 0.267524,-0.39132 0.695325,0.60184 4.49525,10.43604 2.163213,5.5984 4.115418,10.36135 4.338231,10.58432 0.250481,0.25066 2.192005,-0.1954 5.086424,-1.16858 12.206595,-4.10423 18.578275,-3.85569 22.179005,0.86511 0.95205,1.24819 1.2076,2.10923 1.34436,4.52947 0.19138,3.38693 -0.24947,7.75931 -0.78234,7.75931 -0.1953,0 -0.48433,-0.68893 -0.6423,-1.53097 -0.3756,-2.00211 -2.59854,-4.49205 -4.93182,-5.52419 -2.39005,-1.05724 -6.9384,-1.4134 -10.501344,-0.82229 -4.209338,0.69835 -9.157817,2.27251 -9.157817,2.91319 0,0.88123 4.942249,13.5847 6.428267,16.52311 1.575546,3.11546 3.818312,5.24069 5.953154,5.64116 3.76054,0.70549 0.783014,1.06 -8.903326,1.06 -6.666342,0 -10.434284,-0.15701 -10.434284,-0.43473 0,-0.23913 0.401001,-0.43482 0.89111,-0.43482 1.236653,0 3.345171,-1.1534 3.857069,-2.1099 0.5576,-1.04187 -0.181122,-3.81895 -3.055639,-11.48703 -2.048258,-5.46395 -2.325472,-5.96482 -3.164334,-5.71712 -1.895423,0.55968 -11.551695,6.05271 -16.928927,9.63014 -5.292593,3.52111 -6.380707,4.62466 -6.380707,6.47127 0,1.21857 2.005109,2.69932 4.075652,3.0098 4.018974,0.60269 1.856046,1.07239 -4.938314,1.07239 l -6.94933,0 -1.419832,1.29151 -1.419843,1.2916 6.195355,0.0124 c 3.40745,0.01 6.195364,0.18292 6.195364,0.391 0,0.20798 -0.863672,0.62003 -1.91925,0.91556 -1.055588,0.29554 -2.473992,1.1164 -3.152025,1.82409 l -1.232776,1.28674 0,19.25157 c 0,15.0322 0.12232,19.399 0.558134,19.924 1.581548,1.9056 13.224875,2.1333 17.98319,0.3515 3.567508,-1.3358 6.126321,-3.7923 8.078125,-7.755 2.071076,-4.2048 2.254933,-3.2897 0.855031,4.2561 l -1.008219,5.4345 -20.406698,0.1046 c -13.377006,0.069 -20.182055,-0.041 -19.754559,-0.3194 z m 27.889419,-67.73231 c 1.589837,-0.97291 4.971259,-2.88001 7.514256,-4.238 4.109235,-2.19437 4.59077,-2.57276 4.328104,-3.40104 -0.934544,-2.94689 -5.773813,-14.39692 -6.056762,-14.33068 -0.394103,0.0923 -9.768893,21.68774 -10.531271,24.2595 -0.242401,0.8177 -0.20193,0.8263 0.799877,0.17021 0.580351,-0.38008 2.355959,-1.48707 3.945796,-2.45999 z m 14.086841,67.80301 c 0.227158,-0.1988 1.245294,-0.5982 2.262516,-0.8875 3.452638,-0.982 3.352135,-0.3603 3.484602,-21.5562 0.111211,-17.79617 0.07603,-18.78086 -0.716219,-20.06475 -0.611581,-0.99102 -1.394309,-1.50607 -2.942912,-1.93651 l -2.109728,-0.5864 3.260712,-0.28915 c 4.933655,-0.43749 16.22538,-0.42882 20.824672,0.0162 6.96357,0.67348 11.12399,3.40017 12.81709,8.40041 0.87291,2.5779 0.88362,3.8973 0.0543,6.6899 -0.90513,3.0478 -3.39416,5.7245 -6.79184,7.3039 -1.52621,0.7094 -2.8398,1.3281 -2.91907,1.3748 -0.0793,0.047 0.60803,0.8599 1.52736,1.8072 0.91932,0.9473 2.84279,3.4584 4.27437,5.5803 6.60188,9.785 8.85355,12.1853 12.72119,13.5612 l 2.05502,0.7309 -6.46254,0.1206 c -4.56317,0.085 -6.64822,-0.033 -7.09433,-0.4038 -0.34749,-0.2884 -2.60179,-3.4291 -5.00957,-6.9795 -4.21206,-6.2108 -9.091915,-12.0502 -10.861521,-12.9973 -0.465195,-0.249 -1.811021,-0.6053 -2.99071,-0.7918 l -2.144903,-0.339 0,8.8811 0,8.8811 1.248581,1.2486 c 0.686723,0.6867 1.811669,1.3704 2.499887,1.5193 3.73191,0.8071 2.26043,1.0213 -7.204821,1.0487 -5.607344,0.016 -10.009303,-0.1332 -9.782136,-0.3321 z m 20.846827,-22.7561 c 6.562316,-1.3796 10.338966,-6.9813 8.935336,-13.2533 -0.4263,-1.90487 -0.9916,-2.93117 -2.50695,-4.55121 -2.62774,-2.80929 -5.443976,-3.85843 -10.357547,-3.85843 l -3.679176,0 0,11.32544 0,11.3254 2.717269,-0.2655 c 1.494488,-0.146 3.695478,-0.4711 4.891068,-0.7224 z"
       id="path2996"
       inkscape:connector-curvature="0"
       inkscape:export-filename="/home/cpt/eac_dev/ieee_vr_vuforia/images/ualr-logo-128.png"
       inkscape:export-xdpi="90"
       inkscape:export-ydpi="90" />
  </g>
</svg>
