<?xml version="1.0" encoding="UTF-8" standalone="no"?>
<!-- Created with Inkscape (http://www.inkscape.org/) -->

<svg
   xmlns:dc="http://purl.org/dc/elements/1.1/"
   xmlns:cc="http://creativecommons.org/ns#"
   xmlns:rdf="http://www.w3.org/1999/02/22-rdf-syntax-ns#"
   xmlns:svg="http://www.w3.org/2000/svg"
   xmlns="http://www.w3.org/2000/svg"
   xmlns:sodipodi="http://sodipodi.sourceforge.net/DTD/sodipodi-0.dtd"
   xmlns:inkscape="http://www.inkscape.org/namespaces/inkscape"
   width="744.09448819"
   height="1052.3622047"
   id="svg2"
   version="1.1"
   inkscape:version="0.48.4 r9943 custom"
   sodipodi:docname="New document 1">
  <defs
     id="defs4" />
  <sodipodi:namedview
     id="base"
     pagecolor="#ffffff"
     bordercolor="#666666"
     borderopacity="1.0"
     inkscape:pageopacity="0.0"
     inkscape:pageshadow="2"
     inkscape:zoom="0.35"
     inkscape:cx="375"
     inkscape:cy="520"
     inkscape:document-units="px"
     inkscape:current-layer="layer1"
     showgrid="false"
     inkscape:window-width="448"
     inkscape:window-height="403"
     inkscape:window-x="25"
     inkscape:window-y="23"
     inkscape:window-maximized="0" />
  <metadata
     id="metadata7">
    <rdf:RDF>
      <cc:Work
         rdf:about="">
        <dc:format>image/svg+xml</dc:format>
        <dc:type
           rdf:resource="http://purl.org/dc/dcmitype/StillImage" />
        <dc:title></dc:title>
      </cc:Work>
    </rdf:RDF>
  </metadata>
  <g
     inkscape:label="Layer 1"
     inkscape:groupmode="layer"
     id="layer1">
    <path
       style="fill:#000000"
       d="m 238.2143,685.86804 c 0.825,-0.53636 2.10699,-0.9821 2.84887,-0.99052 3.00068,-0.0341 8.34097,-3.47077 9.94518,-6.40015 1.53269,-2.79877 1.70595,-7.45332 1.70595,-45.8282 0,-50.93848 0.37293,-49.31397 -9.35501,-40.75109 -7.0661,6.21984 -20.81673,20.95775 -30.75589,32.96413 -14.27455,17.24347 -24.4532,32.3359 -34.05825,50.5 -5.64421,10.67378 -6.23052,10.85131 -3.77922,1.14434 7.45224,-29.51032 26.03643,-59.17117 56.34757,-89.93215 12.95962,-13.15196 14.72553,-15.35897 11.46911,-14.33402 -13.16818,4.14468 -34.81775,3.06922 -45.01229,-2.23602 -7.0683,-3.67835 -13.17907,-10.76842 -16.66273,-19.33307 -2.04984,-5.03956 -2.18571,-7.29807 -2.67638,-44.48819 -0.49937,-37.84987 -0.5883,-39.27465 -2.62122,-41.99517 -1.23793,-1.65662 -4.01495,-3.43563 -6.74491,-4.32089 -2.55232,-0.82766 -4.64288,-1.84233 -4.64568,-2.25483 -0.003,-0.4125 10.1199,-0.75 22.4949,-0.75 12.375,0 22.49764,0.3375 22.49475,0.75 -0.003,0.4125 -2.13375,1.425 -4.73525,2.25 -3.38944,1.07488 -5.3899,2.48977 -7.05837,4.99229 l -2.32837,3.49229 0.33375,37.50771 c 0.32777,36.83565 0.37662,37.61509 2.72625,43.50034 1.64053,4.10914 4.14861,7.74696 7.97987,11.57432 4.77173,4.76689 6.57119,5.84757 12.32689,7.40296 4.91749,1.32888 8.50292,1.65659 13.2622,1.21216 16.21478,-1.51416 24.28994,-7.54072 29.72239,-22.18207 2.09714,-5.65216 2.24656,-7.85508 2.57731,-37.99859 0.19311,-17.59923 0.059,-33.94677 -0.2981,-36.32787 -0.88199,-5.88149 -6.00333,-11.49365 -12.02768,-13.18036 -2.48994,-0.69714 -4.76713,-1.6558 -5.06042,-2.13035 -0.29329,-0.47456 8.0433,-0.86283 18.52576,-0.86283 12.03935,0 19.05902,0.36831 19.05902,1 0,0.55 -0.69293,1 -1.53984,1 -3.0444,0 -9.4493,4.07831 -10.94387,6.9685 -2.34403,4.53285 -3.32,15.17618 -3.99174,43.5315 -0.6655,28.09178 -1.55855,36.52778 -4.59317,43.38803 -1.0756,2.43158 -1.75718,4.6195 -1.51463,4.86206 0.24256,0.24255 5.45028,-3.28169 11.57271,-7.83165 7.18193,-5.33734 11.60899,-9.36299 12.47685,-11.34555 0.73984,-1.69009 7.25941,-16.57289 14.48795,-33.07289 8.7251,-19.91607 13.02277,-30.88258 12.7857,-32.62569 -0.2901,-2.13315 0.2844,-2.97116 3.0626,-4.46732 2.67173,-1.43882 7.77559,-6.73494 10.91259,-11.32366 0.61533,-0.90008 1.59932,1.38432 10.33956,24.00405 4.97564,12.87694 9.46593,23.83223 9.97843,24.34509 0.57613,0.57655 5.04184,-0.44944 11.69933,-2.68788 28.07651,-9.44016 42.73207,-8.8685 51.01414,1.98985 2.18981,2.87099 2.77762,4.85147 3.09218,10.4183 0.44019,7.7903 -0.57381,17.84726 -1.79946,17.84726 -0.44921,0 -1.11402,-1.58462 -1.47736,-3.52138 -0.86392,-4.6051 -5.97692,-10.33223 -11.34373,-12.70626 -5.49738,-2.43178 -15.9591,-3.25096 -24.15425,-1.89135 -9.68194,1.60629 -21.06399,5.22702 -21.06399,6.70065 0,2.02691 11.36771,31.24629 14.78573,38.00498 3.62392,7.16588 8.78252,12.05414 13.69289,12.97533 8.64966,1.62268 1.80102,2.43803 -20.47862,2.43803 -15.33333,0 -24,-0.36111 -24,-1 0,-0.55 0.92235,-1 2.04966,-1 2.84442,0 7.69425,-2.65298 8.87168,-4.85303 1.28253,-2.39643 -0.41661,-8.78401 -7.0283,-26.42142 -4.71123,-12.56771 -5.34886,-13.71975 -7.27832,-13.15002 -4.35968,1.28732 -26.57016,13.9219 -38.9384,22.15037 -12.17354,8.09894 -14.67632,10.63725 -14.67632,14.88465 0,2.80284 4.61197,6.20872 9.37444,6.92289 9.24408,1.38624 4.26912,2.46656 -11.35866,2.46656 l -15.98423,0 -3.26577,2.97069 -3.26578,2.97068 14.25,0.0293 c 7.8375,0.0161 14.25,0.42083 14.25,0.89935 0,0.47852 -1.98652,1.42623 -4.41448,2.10602 -2.42796,0.67978 -5.69046,2.56781 -7.25,4.19562 l -2.83552,2.95965 0,44.28064 c 0,34.57558 0.28136,44.61966 1.28376,45.82747 3.63775,4.38322 30.41868,4.90664 41.36333,0.80842 8.20564,-3.0726 14.09121,-8.72276 18.58057,-17.8374 4.7637,-9.67163 5.18659,-7.56663 1.96666,9.78954 l -2.31901,12.5 -46.93765,0.24052 c -30.76859,0.15768 -46.42094,-0.0954 -45.43766,-0.73467 z m 64.14873,-155.79155 c 3.65679,-2.23781 11.43443,-6.62436 17.28362,-9.74788 9.45168,-5.04729 10.55927,-5.91764 9.9551,-7.82277 -2.14954,-6.77816 -13.28039,-33.11449 -13.9312,-32.96213 -0.90648,0.21223 -22.46954,49.88417 -24.22308,55.79951 -0.55755,1.8808 -0.46447,1.9006 1.83979,0.39151 1.33487,-0.87422 5.41897,-3.42043 9.07577,-5.65824 z m 32.40127,155.9543 c 0.5225,-0.45728 2.86432,-1.37589 5.20404,-2.04135 7.94145,-2.2587 7.71029,-0.82874 8.01497,-49.58167 0.25581,-40.93297 0.17496,-43.19797 -1.64739,-46.15101 -1.4067,-2.27949 -3.20706,-3.46418 -6.76901,-4.45421 l -4.85261,-1.34877 7.5,-0.66508 c 11.34795,-1.00631 37.32015,-0.98641 47.89905,0.0367 16.01697,1.54904 25.58638,7.82086 29.48071,19.32175 2.0078,5.92949 2.03242,8.96408 0.12487,15.3875 -2.08187,7.01044 -7.80692,13.16717 -15.62195,16.7999 -3.51047,1.63181 -6.53186,3.05477 -6.7142,3.16214 -0.18234,0.10737 1.39856,1.97795 3.51311,4.15685 2.11455,2.17889 6.53873,7.95471 9.83152,12.83514 15.18504,22.50664 20.36413,28.02769 29.26013,31.19214 l 4.72676,1.68139 -14.86454,0.27739 c -10.49579,0.19586 -15.29163,-0.0771 -16.31774,-0.92867 -0.79926,-0.66333 -5.98442,-7.88752 -11.52257,-16.05375 -9.6882,-14.28564 -20.91239,-27.71698 -24.98268,-29.89533 -1.07001,-0.57265 -4.16555,-1.39213 -6.87897,-1.82107 l -4.9335,-0.77988 0,20.42758 0,20.42758 2.87187,2.87186 c 1.57952,1.57953 4.16702,3.15201 5.75,3.49442 8.58381,1.8567 5.19924,2.34935 -16.57187,2.41219 -12.8975,0.0372 -23.0225,-0.30646 -22.5,-0.76374 z m 47.95,-52.3416 c 15.09405,-3.17298 23.78077,-16.05754 20.55226,-30.48408 -0.98053,-4.38147 -2.28077,-6.74196 -5.76626,-10.46823 -6.0441,-6.46164 -12.52175,-8.87467 -23.82351,-8.87467 l -8.46249,0 0,26.04966 0,26.04965 6.25,-0.61063 c 3.4375,-0.33584 8.5,-1.08361 11.25,-1.6617 z"
       id="path2996"
       inkscape:connector-curvature="0" />
  </g>
</svg>
