<?xml version="1.0" encoding="UTF-8" standalone="no"?>
<!-- Created with Inkscape (http://www.inkscape.org/) -->

<svg
   xmlns:dc="http://purl.org/dc/elements/1.1/"
   xmlns:cc="http://creativecommons.org/ns#"
   xmlns:rdf="http://www.w3.org/1999/02/22-rdf-syntax-ns#"
   xmlns:svg="http://www.w3.org/2000/svg"
   xmlns="http://www.w3.org/2000/svg"
   xmlns:sodipodi="http://sodipodi.sourceforge.net/DTD/sodipodi-0.dtd"
   xmlns:inkscape="http://www.inkscape.org/namespaces/inkscape"
   width="128"
   height="128"
   id="svg2"
   version="1.1"
   inkscape:version="0.48.5 r10040"
   sodipodi:docname="ualr-logo-black.svg">
  <defs
     id="defs4" />
  <sodipodi:namedview
     id="base"
     pagecolor="#ffffff"
     bordercolor="#666666"
     borderopacity="1.0"
     inkscape:pageopacity="0.0"
     inkscape:pageshadow="2"
     inkscape:zoom="1.6361898"
     inkscape:cx="19.154048"
     inkscape:cy="65.932369"
     inkscape:document-units="px"
     inkscape:current-layer="layer1"
     showgrid="false"
     inkscape:window-width="1046"
     inkscape:window-height="653"
     inkscape:window-x="500"
     inkscape:window-y="44"
     inkscape:window-maximized="0" />
  <metadata
     id="metadata7">
    <rdf:RDF>
      <cc:Work
         rdf:about="">
        <dc:format>image/svg+xml</dc:format>
        <dc:type
           rdf:resource="http://purl.org/dc/dcmitype/StillImage" />
        <dc:title />
      </cc:Work>
    </rdf:RDF>
  </metadata>
  <g
     inkscape:label="Layer 1"
     inkscape:groupmode="layer"
     id="layer1"
     transform="translate(0,-924.36218)">
    <rect
       style="fill:none;stroke:none"
       id="rect3052"
       width="128"
       height="128"
       x="0.18112853"
       y="924"
       inkscape:export-filename="/home/cpt/eac_dev/ieee_vr_vuforia/images/ualr_logo_128.png"
       inkscape:export-xdpi="90"
       inkscape:export-ydpi="90" />
    <path
       style="fill:#000000"
       d="m 35.377047,1037.5958 c 0.358672,-0.2333 0.916033,-0.4271 1.238578,-0.4307 1.304582,-0.015 3.626338,-1.509 4.323788,-2.7825 0.666353,-1.2168 0.741675,-3.2405 0.741675,-19.9244 0,-22.14612 0.162135,-21.43987 -4.067201,-17.71701 -3.072073,2.70414 -9.050321,9.11171 -13.371489,14.33151 -6.206025,7.4968 -10.631317,14.0585 -14.807224,21.9555 -2.4538894,4.6405 -2.7087903,4.7177 -1.6430653,0.4975 3.2399523,-12.8299 11.3196493,-25.7254 24.4977743,-39.09906 5.634354,-5.71795 6.402105,-6.67751 4.98634,-6.23185 -5.725024,1.80188 -15.137437,1.33438 -19.569635,-0.97218 -3.073026,-1.59921 -5.72975,-4.6817 -7.244312,-8.40528 C 9.5710799,976.62632 9.5120111,975.6444 9.2986869,959.47556 9.0815805,943.01988 9.0429095,942.40044 8.1590783,941.21766 7.6208758,940.49742 6.4135287,939.72398 5.226646,939.3391 c -1.1096455,-0.35983 -2.0185428,-0.80097 -2.0197623,-0.98031 -9.527e-4,-0.17934 4.3997489,-0.32607 9.7799253,-0.32607 5.380177,0 9.781117,0.14673 9.77986,0.32607 -9.53e-4,0.17934 -0.927676,0.61953 -2.05871,0.97822 -1.473595,0.46731 -2.343316,1.08245 -3.06871,2.17045 l -1.012287,1.51832 0.14511,16.30692 c 0.142498,16.01473 0.163734,16.3536 1.185263,18.91228 0.713246,1.7865 1.803656,3.36809 3.469348,5.03207 2.074563,2.07247 2.856901,2.54231 5.359255,3.21853 2.137938,0.57775 3.696745,0.72023 5.765906,0.52701 7.049565,-0.6583 10.560338,-3.27842 12.922157,-9.64393 0.911755,-2.45733 0.976721,-3.41509 1.120516,-16.52033 0.08393,-7.65148 0.02563,-14.75877 -0.129599,-15.79398 -0.383461,-2.55705 -2.610022,-4.997 -5.22918,-5.73031 -1.082531,-0.30309 -2.072562,-0.71988 -2.200074,-0.9262 -0.127513,-0.20632 3.49692,-0.37512 8.054288,-0.37512 5.234257,0 8.286142,0.16012 8.286142,0.43476 0,0.23912 -0.30126,0.43476 -0.669469,0.43476 -1.323588,0 -4.108196,1.77309 -4.757972,3.02964 -1.019099,1.9707 -1.443413,6.59802 -1.735461,18.92583 -0.289332,12.21324 -0.677595,15.8809 -1.996935,18.86347 -0.467624,1.05715 -0.76395,2.00838 -0.658502,2.11383 0.105456,0.10545 2.369573,-1.42675 5.031375,-3.4049 3.122424,-2.32047 5.047143,-4.07067 5.424459,-4.93261 0.321649,-0.73479 3.156113,-7.20526 6.298801,-14.37883 3.793342,-8.65875 5.661811,-13.42657 5.558736,-14.18441 -0.126121,-0.92741 0.123645,-1.29175 1.331506,-1.94222 1.161569,-0.62554 3.380527,-2.9281 4.744378,-4.92309 0.267524,-0.39132 0.695325,0.60184 4.49525,10.43604 2.163213,5.5984 4.115418,10.36135 4.338231,10.58432 0.250481,0.25066 2.192005,-0.1954 5.086424,-1.16858 12.206595,-4.10423 18.578275,-3.85569 22.179005,0.86511 0.95205,1.24819 1.2076,2.10923 1.34436,4.52947 0.19138,3.38693 -0.24947,7.75931 -0.78234,7.75931 -0.1953,0 -0.48433,-0.68893 -0.6423,-1.53097 -0.3756,-2.00211 -2.59854,-4.49205 -4.93182,-5.52419 -2.39005,-1.05724 -6.9384,-1.4134 -10.501344,-0.82229 -4.209338,0.69835 -9.157817,2.27251 -9.157817,2.91319 0,0.88123 4.942249,13.5847 6.428267,16.52311 1.575546,3.11546 3.818312,5.24069 5.953154,5.64116 3.76054,0.70549 0.783014,1.06 -8.903326,1.06 -6.666342,0 -10.434284,-0.15701 -10.434284,-0.43473 0,-0.23913 0.401001,-0.43482 0.89111,-0.43482 1.236653,0 3.345171,-1.1534 3.857069,-2.1099 0.5576,-1.04187 -0.181122,-3.81895 -3.055639,-11.48703 -2.048258,-5.46395 -2.325472,-5.96482 -3.164334,-5.71712 -1.895423,0.55968 -11.551695,6.05271 -16.928927,9.63014 -5.292593,3.52111 -6.380707,4.62466 -6.380707,6.47127 0,1.21857 2.005109,2.69932 4.075652,3.0098 4.018974,0.60269 1.856046,1.07239 -4.938314,1.07239 l -6.94933,0 -1.419832,1.29151 -1.419843,1.2916 6.195355,0.0124 c 3.40745,0.01 6.195364,0.18292 6.195364,0.391 0,0.20798 -0.863672,0.62003 -1.91925,0.91556 -1.055588,0.29554 -2.473992,1.1164 -3.152025,1.82409 l -1.232776,1.28674 0,19.25157 c 0,15.0322 0.12232,19.399 0.558134,19.924 1.581548,1.9056 13.224875,2.1333 17.98319,0.3515 3.567508,-1.3358 6.126321,-3.7923 8.078125,-7.755 2.071076,-4.2048 2.254933,-3.2897 0.855031,4.2561 l -1.008219,5.4345 -20.406698,0.1046 c -13.377006,0.069 -20.182055,-0.041 -19.754559,-0.3194 z m 27.889419,-67.73231 c 1.589837,-0.97291 4.971259,-2.88001 7.514256,-4.238 4.109235,-2.19437 4.59077,-2.57276 4.328104,-3.40104 -0.934544,-2.94689 -5.773813,-14.39692 -6.056762,-14.33068 -0.394103,0.0923 -9.768893,21.68774 -10.531271,24.2595 -0.242401,0.8177 -0.20193,0.8263 0.799877,0.17021 0.580351,-0.38008 2.355959,-1.48707 3.945796,-2.45999 z m 14.086841,67.80301 c 0.227158,-0.1988 1.245294,-0.5982 2.262516,-0.8875 3.452638,-0.982 3.352135,-0.3603 3.484602,-21.5562 0.111211,-17.79617 0.07603,-18.78086 -0.716219,-20.06475 -0.611581,-0.99102 -1.394309,-1.50607 -2.942912,-1.93651 l -2.109728,-0.5864 3.260712,-0.28915 c 4.933655,-0.43749 16.22538,-0.42882 20.824672,0.0162 6.96357,0.67348 11.12399,3.40017 12.81709,8.40041 0.87291,2.5779 0.88362,3.8973 0.0543,6.6899 -0.90513,3.0478 -3.39416,5.7245 -6.79184,7.3039 -1.52621,0.7094 -2.8398,1.3281 -2.91907,1.3748 -0.0793,0.047 0.60803,0.8599 1.52736,1.8072 0.91932,0.9473 2.84279,3.4584 4.27437,5.5803 6.60188,9.785 8.85355,12.1853 12.72119,13.5612 l 2.05502,0.7309 -6.46254,0.1206 c -4.56317,0.085 -6.64822,-0.033 -7.09433,-0.4038 -0.34749,-0.2884 -2.60179,-3.4291 -5.00957,-6.9795 -4.21206,-6.2108 -9.091915,-12.0502 -10.861521,-12.9973 -0.465195,-0.249 -1.811021,-0.6053 -2.99071,-0.7918 l -2.144903,-0.339 0,8.8811 0,8.8811 1.248581,1.2486 c 0.686723,0.6867 1.811669,1.3704 2.499887,1.5193 3.73191,0.8071 2.26043,1.0213 -7.204821,1.0487 -5.607344,0.016 -10.009303,-0.1332 -9.782136,-0.3321 z m 20.846827,-22.7561 c 6.562316,-1.3796 10.338966,-6.9813 8.935336,-13.2533 -0.4263,-1.90487 -0.9916,-2.93117 -2.50695,-4.55121 -2.62774,-2.80929 -5.443976,-3.85843 -10.357547,-3.85843 l -3.679176,0 0,11.32544 0,11.3254 2.717269,-0.2655 c 1.494488,-0.146 3.695478,-0.4711 4.891068,-0.7224 z"
       id="path2996"
       inkscape:connector-curvature="0"
       inkscape:export-filename="/home/cpt/eac_dev/ieee_vr_vuforia/images/ualr_logo_128.png"
       inkscape:export-xdpi="90"
       inkscape:export-ydpi="90" />
    <flowRoot
       xml:space="preserve"
       id="flowRoot2992"
       style="fill:black;stroke:none;stroke-opacity:1;stroke-width:1px;stroke-linejoin:miter;stroke-linecap:butt;fill-opacity:1;font-family:Sans;font-style:normal;font-weight:normal;font-size:40px;line-height:125%;letter-spacing:0px;word-spacing:0px"><flowRegion
         id="flowRegion2994"><rect
           id="rect2996"
           width="248.92802"
           height="127.05701"
           x="134.83601"
           y="2.6716516" /></flowRegion><flowPara
         id="flowPara2998" /></flowRoot>    <text
       xml:space="preserve"
       style="font-size:40px;font-style:normal;font-weight:normal;line-height:125%;letter-spacing:0px;word-spacing:0px;fill:#000000;fill-opacity:1;stroke:none;font-family:Sans"
       x="183.23869"
       y="70.953995"
       id="text3000"
       sodipodi:linespacing="125%"
       transform="translate(0,924.36218)"><tspan
         sodipodi:role="line"
         id="tspan3002" /></text>
    <path
       style="fill:#333333;fill-opacity:1"
       d="m 39.014868,112.18644 c 0.93989,-0.50961 1.97125,-1.61662 2.29191,-2.46002 0.629515,-1.65575 0.806854,-35.698982 0.197803,-37.971649 -0.548998,-2.048579 -1.771108,-1.691883 -5.235012,1.52794 -8.337138,7.74967 -18.11746,19.921699 -24.174604,30.086329 -2.1009179,3.5256 -3.8198505,6.08757 -3.8198505,5.69327 0,-0.39431 0.7147477,-2.72727 1.5883282,-5.18437 C 13.475727,93.717755 20.775029,82.851118 32.054898,70.841013 c 3.392314,-3.611925 6.167842,-6.666661 6.167842,-6.788302 0,-0.12164 -3.258431,-0.08697 -7.240958,0.07705 -5.836384,0.24037 -7.862618,0.09174 -10.445768,-0.76625 C 16.512201,62.02702 13.520412,59.428959 11.567692,55.575451 10.106063,52.691065 10.038119,52.027139 9.7482308,37.796328 9.3335669,17.44018 9.2510853,16.800759 6.8511595,15.3374 l -1.9375132,-1.181401 8.2508767,0 8.250876,0 -1.947315,1.187363 c -3.421048,2.085961 -3.462218,2.368194 -2.986563,20.473679 0.398965,15.186322 0.541274,16.748423 1.747234,19.179142 3.061735,6.171196 9.068638,8.932942 16.445585,7.561054 5.187397,-0.964697 7.936986,-2.952887 10.058343,-7.273053 l 1.740934,-3.545428 0.17126,-15.890577 c 0.162913,-15.116101 0.110198,-15.989071 -1.081595,-17.911464 -0.689071,-1.111488 -2.141284,-2.407112 -3.22714,-2.879164 -1.85346,-0.80575 -1.562845,-0.859601 4.748651,-0.879914 l 6.722936,-0.02164 -1.923313,1.172766 c -1.123778,0.685239 -2.194746,2.018158 -2.576255,3.20639 -0.359118,1.118493 -0.941671,8.49681 -1.294563,16.39626 -0.410261,9.183666 -0.99596,15.749669 -1.624294,18.209239 -0.54047,2.115631 -0.827193,4.002081 -0.637163,4.192112 0.871209,0.871208 9.988862,-6.692221 11.072738,-9.185243 7.237808,-16.647676 9.501221,-22.035996 10.42615,-24.820707 0.771757,-2.323542 1.977191,-4.173365 4.009547,-6.152944 l 2.906026,-2.830558 4.12663,10.29405 c 2.922076,7.289245 4.411121,10.294051 5.101254,10.294051 0.536038,0 3.86127,-0.825088 7.389394,-1.833528 10.11062,-2.889908 15.73653,-2.414002 18.89249,1.598151 1.06205,1.350173 1.2723,2.455232 1.2524,6.582354 -0.0224,4.651817 -0.0745,4.845932 -0.83884,3.126251 -1.01441,-2.282379 -3.15809,-4.288649 -5.55459,-5.198546 -4.943295,-1.876861 -19.252045,0.224334 -19.252045,2.827102 0,1.48512 5.938517,16.100019 7.421218,18.26388 0.78739,1.149127 2.096486,2.443893 2.9091,2.87726 1.437382,0.766554 1.404336,0.799149 -1.217744,1.201018 -3.499038,0.536275 -11.176136,0.61158 -12.451599,0.122137 -0.870914,-0.334201 -0.839194,-0.490182 0.255599,-1.257008 1.773364,-1.242113 1.586448,-3.482827 -0.852608,-10.220835 -2.641821,-7.298143 -3.190223,-8.311944 -4.489137,-8.29887 -1.352111,0.01361 -14.356084,7.489833 -19.437119,11.174756 -3.337816,2.420686 -3.918864,3.118077 -3.918864,4.703542 0,1.410587 0.384117,2.036478 1.585843,2.584022 1.423056,0.648387 1.470109,0.768107 0.458382,1.166292 -0.620103,0.244054 -3.210996,0.463065 -5.757538,0.486691 -4.119159,0.03822 -4.788474,0.211562 -6.065503,1.570897 l -1.435425,1.52794 6.065503,0.04985 c 5.571387,0.04579 5.91572,0.115711 4.226849,0.858261 -4.210911,1.851422 -4.095537,1.178851 -3.867537,22.545937 0.151526,14.200287 0.403358,19.466027 0.957433,20.019627 0.413505,0.41315 1.926166,0.94224 3.361468,1.17577 1.622646,0.264 -0.857663,0.44426 -6.557999,0.47661 -8.520258,0.0483 -9.046966,-0.0134 -7.458749,-0.87454 l 0,0 z M 66.544051,44.104565 c 4.08787,-2.349997 7.819466,-4.5244 8.292443,-4.832006 0.722037,-0.469586 0.629279,-1.181114 -0.578356,-4.436536 -1.866953,-5.032758 -4.79041,-11.516953 -5.192521,-11.516953 -0.60166,0 -10.674067,23.059644 -10.674067,24.437076 0,0.341628 0.162002,0.621142 0.360004,0.621142 0.198003,0 3.704626,-1.922725 7.792497,-4.272723 z"
       id="path2990"
       inkscape:connector-curvature="0"
       transform="translate(0,924.36218)" />
    <path
       style="fill:#222222;fill-opacity:1"
       d="m 80.547924,112.45118 c 1.021548,-0.37308 1.861473,-1.25406 2.139116,-2.24366 0.251427,-0.89617 0.457139,-10.1103 0.457139,-20.475857 0,-18.743658 -0.0074,-18.852478 -1.359785,-19.94875 l -1.359786,-1.102285 1.359786,-0.364508 c 2.233048,-0.598598 16.342852,-0.420049 20.532846,0.259827 7.85452,1.274488 11.95326,5.141313 11.95326,11.276907 0,4.295626 -2.03285,7.366577 -6.43957,9.72801 -1.81258,0.971305 -3.39785,1.849051 -3.52283,1.950546 -0.12498,0.101495 1.12846,1.915809 2.78542,4.031807 1.65696,2.115998 4.26976,5.634963 5.80621,7.819913 3.21583,4.57317 5.53663,7.03814 8.13736,8.64289 l 1.83353,1.13136 -5.50058,-0.0337 -5.50059,-0.0337 -5.37131,-7.50509 C 100.01692,96.529002 96.916681,93.201484 94.290286,92.482115 l -1.978466,-0.541902 2.444704,-0.448136 c 5.057827,-0.927144 7.026796,-1.632283 8.856216,-3.171634 5.11238,-4.301787 5.42051,-11.447595 0.69729,-16.170816 -2.57061,-2.570615 -5.594039,-3.595244 -10.623064,-3.600122 l -3.514262,-0.0034 0,20.725655 0,20.725658 1.88042,1.58227 1.880421,1.58227 -7.533799,-0.0483 c -5.798521,-0.0371 -7.146385,-0.18974 -5.851822,-0.66252 z"
       id="path2992"
       inkscape:connector-curvature="0"
       transform="translate(0,924.36218)" />
    <path
       style="fill:#222222;fill-opacity:1"
       d="m 40.469232,111.34056 1.481682,-1.57691 0,-19.171633 c 0,-13.486864 -0.205709,-19.377604 -0.693744,-19.866258 -0.518011,-0.518668 -1.158598,-0.45424 -2.528843,0.254342 -2.093217,1.082444 -13.669349,13.191952 -13.253743,13.864411 0.150229,0.243077 -0.111077,0.5894 -0.580681,0.769605 -1.101575,0.422714 -7.174809,8.441618 -11.378201,15.023413 -1.804932,2.82622 -3.375211,4.85803 -3.489509,4.51513 -0.2984903,-0.89547 3.474668,-8.921933 6.549262,-13.931932 3.686986,-6.007885 7.139327,-10.432653 15.140262,-19.404839 l 6.948945,-7.792495 -6.730462,0 c -3.701754,0 -8.130968,-0.300355 -9.842699,-0.667455 -4.289297,-0.91989 -7.885211,-3.780506 -9.916896,-7.889075 -1.61274,-3.26136 -1.672993,-3.761582 -2.024467,-16.807275 C 9.7420573,23.512815 9.0446828,17.198658 7.6040418,15.606768 6.6648423,14.568964 6.9300301,14.51877 13.283709,14.531725 c 6.427002,0.0131 6.616909,0.05128 5.321107,1.069558 -0.739069,0.580783 -1.632914,1.830203 -1.986322,2.77649 -1.391419,3.725661 -0.261591,33.689277 1.390796,36.884642 1.376536,2.661927 4.558583,5.707352 7.115813,6.810294 5.7479,2.479089 15.442208,0.09347 18.6192,-4.581893 1.006532,-1.481244 1.568079,-1.928525 1.568079,-1.248998 0,1.62867 1.693746,1.266198 4.807525,-1.028841 3.786646,-2.790982 5.920488,-5.101378 7.40697,-8.019828 1.200928,-2.357815 1.229453,-2.373357 1.079654,-0.588272 -0.107518,1.281246 0.0971,1.780555 0.679321,1.657662 0.458252,-0.09673 4.239903,-2.119674 8.403672,-4.495442 6.530275,-3.726051 7.570484,-4.53048 7.570484,-5.8545 0,-1.735266 -5.365636,-14.837997 -6.076238,-14.837997 -0.253577,0 -0.972657,1.134528 -1.597945,2.521172 -0.625288,1.386646 -1.228696,2.245756 -1.340903,1.909134 -0.686526,-2.059578 6.628756,-13.222373 7.827266,-11.944068 0.250221,0.266881 1.62607,3.373044 3.057432,6.902586 1.431368,3.529541 2.835607,6.509596 3.120537,6.622343 0.28493,0.112747 0.396806,0.40117 0.24862,0.640939 -0.148186,0.23977 0.349403,1.522668 1.105746,2.850886 1.382767,2.428285 2.592254,2.822204 5.26783,1.715686 0.50422,-0.208526 1.466823,-0.456221 2.139116,-0.550434 0.672294,-0.09421 3.095864,-0.607903 5.385714,-1.141537 7.281987,-1.697017 12.013177,-1.041383 14.765657,2.046178 0.90578,1.016059 1.25583,2.440468 1.41005,5.737731 l 0.20514,4.386133 -1.31728,-1.986322 c -0.7245,-1.092477 -1.70281,-1.986322 -2.17402,-1.986322 -0.47121,0 -0.85674,-0.253701 -0.85674,-0.563778 0,-1.653442 -9.99305,-2.477432 -14.973817,-1.234686 -1.00844,0.251615 -2.581919,0.624935 -3.496623,0.829601 -2.536955,0.567649 -3.06734,2.148141 -1.892207,5.638575 0.549954,1.633494 1.162334,3.107503 1.360844,3.275576 0.19851,0.168074 0.451384,0.828858 0.561934,1.468411 0.44537,2.576496 4.907413,11.209463 6.40095,12.384282 l 1.595408,1.254948 -4.098681,0.387123 c -5.216173,0.492671 -8.985064,0.500703 -9.465595,0.02017 -0.206602,-0.206602 0.02818,-0.991981 0.521792,-1.745286 0.734083,-1.120353 0.774696,-1.941915 0.223128,-4.513768 -0.370862,-1.729269 -0.942764,-3.144124 -1.270892,-3.144124 -0.328134,0 -0.43718,-0.257953 -0.242325,-0.573229 0.463626,-0.75017 -2.572483,-8.316634 -3.718896,-9.268076 -0.706404,-0.586259 -1.505033,-0.44684 -3.920181,0.684356 -1.668181,0.781333 -3.033053,1.602784 -3.033053,1.825447 0,0.222661 -0.343786,0.411899 -0.76397,0.420525 -1.190113,0.02443 -8.403671,4.531578 -8.403671,5.250743 0,0.352884 -0.172497,0.46911 -0.383326,0.25828 -0.409674,-0.409674 -4.524501,2.26809 -6.797992,4.423861 -1.626877,1.542638 -1.766822,3.477571 -0.363657,5.028051 0.556319,0.614725 0.762591,1.132511 0.458382,1.150636 -8.088978,0.481934 -12.47104,1.792166 -12.47104,3.728828 0,0.284047 2.406506,0.517479 5.347791,0.518735 l 5.34779,0.0023 -1.897301,1.156947 c -1.254547,0.765005 -2.030984,1.825361 -2.29191,3.129992 -0.484313,2.421563 -0.377243,27.909838 0.143656,34.197688 0.337638,4.0757 0.543447,4.65204 1.906439,5.33879 1.321221,0.66569 0.624635,0.77106 -5.148739,0.77885 l -6.676679,0.009 1.481683,-1.57692 0,0 z"
       id="path3762"
       inkscape:connector-curvature="0"
       transform="translate(0,924.36218)" />
    <path
       style="fill:#222222;fill-opacity:1"
       d="m 67.182926,111.76198 c 3.715201,-1.2833 5.699501,-2.9257 8.163199,-6.75665 1.930229,-3.00143 2.041934,-2.80756 1.108034,1.9231 -1.322137,6.69727 -0.511183,5.99155 -6.859173,5.96909 l -5.641734,-0.0199 3.229674,-1.11559 z"
       id="path3764"
       inkscape:connector-curvature="0"
       transform="translate(0,924.36218)" />
  </g>
</svg>
