<?xml version="1.0" encoding="UTF-8" standalone="no"?>
<!-- Created with Inkscape (http://www.inkscape.org/) -->

<svg
   xmlns:dc="http://purl.org/dc/elements/1.1/"
   xmlns:cc="http://creativecommons.org/ns#"
   xmlns:rdf="http://www.w3.org/1999/02/22-rdf-syntax-ns#"
   xmlns:svg="http://www.w3.org/2000/svg"
   xmlns="http://www.w3.org/2000/svg"
   xmlns:sodipodi="http://sodipodi.sourceforge.net/DTD/sodipodi-0.dtd"
   xmlns:inkscape="http://www.inkscape.org/namespaces/inkscape"
   width="744.09448819"
   height="1052.3622047"
   id="svg2"
   version="1.1"
   inkscape:version="0.48.5 r10040"
   sodipodi:docname="ualr_logo_large.svg">
  <defs
     id="defs4" />
  <sodipodi:namedview
     id="base"
     pagecolor="#ffffff"
     bordercolor="#666666"
     borderopacity="1.0"
     inkscape:pageopacity="0.0"
     inkscape:pageshadow="2"
     inkscape:zoom="0.8"
     inkscape:cx="356.52074"
     inkscape:cy="-30.819009"
     inkscape:document-units="px"
     inkscape:current-layer="g3836"
     showgrid="false"
     inkscape:window-width="1865"
     inkscape:window-height="1056"
     inkscape:window-x="55"
     inkscape:window-y="24"
     inkscape:window-maximized="1" />
  <metadata
     id="metadata7">
    <rdf:RDF>
      <cc:Work
         rdf:about="">
        <dc:format>image/svg+xml</dc:format>
        <dc:type
           rdf:resource="http://purl.org/dc/dcmitype/StillImage" />
        <dc:title></dc:title>
      </cc:Work>
    </rdf:RDF>
  </metadata>
  <g
     inkscape:label="Layer 1"
     inkscape:groupmode="layer"
     id="layer1">
    <rect
       style="fill:none;stroke:none"
       id="rect3052"
       width="834"
       height="200"
       x="168.94922"
       y="827"
       inkscape:export-filename="/home/cpt/eac_dev/ieee_vr_vuforia/images/ualr_logo.png"
       inkscape:export-xdpi="90"
       inkscape:export-ydpi="90" />
    <g
       id="g3836"
       transform="matrix(1.3000005,0,0,1.3000005,-230.50781,-310.60046)"
       style="fill:#808080"
       inkscape:export-filename="/home/cpt/eac_dev/ieee_vr_vuforia/images/ualr_logo_white_128.png"
       inkscape:export-xdpi="90"
       inkscape:export-ydpi="90">
      <path
         inkscape:export-ydpi="90"
         inkscape:export-xdpi="90"
         inkscape:export-filename="/home/cpt/eac_dev/ieee_vr_vuforia/images/ualr_logo.png"
         inkscape:connector-curvature="0"
         id="path2996"
         d="m 388.37705,1001.5958 c 0.35867,-0.2333 0.91603,-0.4271 1.23858,-0.4307 1.30458,-0.015 3.62633,-1.50898 4.32378,-2.78248 0.66636,-1.2168 0.74168,-3.2405 0.74168,-19.9244 0,-22.14612 0.16213,-21.43987 -4.0672,-17.71701 -3.07207,2.70414 -9.05032,9.11171 -13.37149,14.33151 -6.20603,7.4968 -10.63132,14.0585 -14.80722,21.9555 -2.45389,4.64048 -2.70879,4.71768 -1.64307,0.4975 3.23995,-12.8299 11.31965,-25.7254 24.49777,-39.09906 5.63436,-5.71795 6.40211,-6.67751 4.98634,-6.23185 -5.72502,1.80188 -15.13743,1.33438 -19.56963,-0.97218 -3.07303,-1.59921 -5.72975,-4.6817 -7.24431,-8.40528 -0.8912,-2.19101 -0.95027,-3.17293 -1.16359,-19.34177 -0.21711,-16.45568 -0.25578,-17.07512 -1.13961,-18.2579 -0.5382,-0.72024 -1.74555,-1.49368 -2.93243,-1.87856 -1.10965,-0.35983 -2.01855,-0.80097 -2.01976,-0.98031 -9.6e-4,-0.17934 4.39974,-0.32607 9.77992,-0.32607 5.38018,0 9.78112,0.14673 9.77986,0.32607 -9.5e-4,0.17934 -0.92768,0.61953 -2.05871,0.97822 -1.47359,0.46731 -2.34332,1.08245 -3.06871,2.17045 l -1.01229,1.51832 0.14511,16.30692 c 0.1425,16.01473 0.16374,16.3536 1.18527,18.91228 0.71324,1.7865 1.80365,3.36809 3.46934,5.03207 2.07457,2.07247 2.85691,2.54231 5.35926,3.21853 2.13794,0.57775 3.69674,0.72023 5.76591,0.52701 7.04956,-0.6583 10.56033,-3.27842 12.92215,-9.64393 0.91176,-2.45733 0.97672,-3.41509 1.12052,-16.52033 0.0839,-7.65148 0.0256,-14.75877 -0.1296,-15.79398 -0.38346,-2.55705 -2.61002,-4.997 -5.22918,-5.73031 -1.08253,-0.30309 -2.07256,-0.71988 -2.20007,-0.9262 -0.12752,-0.20632 3.49692,-0.37512 8.05428,-0.37512 5.23426,0 8.28615,0.16012 8.28615,0.43476 0,0.23912 -0.30126,0.43476 -0.66947,0.43476 -1.32359,0 -4.1082,1.77309 -4.75798,3.02964 -1.01909,1.9707 -1.44341,6.59802 -1.73546,18.92583 -0.28933,12.21324 -0.67759,15.8809 -1.99693,18.86347 -0.46763,1.05715 -0.76395,2.00838 -0.6585,2.11383 0.10545,0.10545 2.36957,-1.42675 5.03137,-3.4049 3.12243,-2.32047 5.04714,-4.07067 5.42446,-4.93261 0.32165,-0.73479 3.15611,-7.20526 6.2988,-14.37883 3.79334,-8.65875 5.66181,-13.42657 5.55874,-14.18441 -0.12612,-0.92741 0.12364,-1.29175 1.3315,-1.94222 1.16157,-0.62554 3.38053,-2.9281 4.74438,-4.92309 0.26753,-0.39132 0.69533,0.60184 4.49525,10.43604 2.16321,5.5984 4.11542,10.36135 4.33823,10.58432 0.25048,0.25066 2.19201,-0.1954 5.08643,-1.16858 12.20659,-4.10423 18.57827,-3.85569 22.179,0.86511 0.95205,1.24819 1.2076,2.10923 1.34436,4.52947 0.19138,3.38693 -0.24947,7.75931 -0.78234,7.75931 -0.1953,0 -0.48433,-0.68893 -0.6423,-1.53097 -0.3756,-2.00211 -2.59854,-4.49205 -4.93182,-5.52419 -2.39005,-1.05724 -6.9384,-1.4134 -10.50134,-0.82229 -4.20934,0.69835 -9.15782,2.27251 -9.15782,2.91319 0,0.88123 4.94225,13.5847 6.42827,16.52311 1.57554,3.11546 3.81831,5.24069 5.95315,5.64116 3.76054,0.70549 0.78302,1.06 -8.90332,1.06 -6.66635,0 -10.43429,-0.15701 -10.43429,-0.43473 0,-0.23913 0.401,-0.43482 0.89111,-0.43482 1.23665,0 3.34517,-1.1534 3.85707,-2.1099 0.5576,-1.04187 -0.18112,-3.81895 -3.05564,-11.48703 -2.04826,-5.46395 -2.32547,-5.96482 -3.16433,-5.71712 -1.89543,0.55968 -11.5517,6.05271 -16.92893,9.63014 -5.29259,3.52111 -6.38071,4.62466 -6.38071,6.47127 0,1.21857 2.00511,2.69932 4.07566,3.0098 4.01897,0.60269 1.85604,1.07239 -4.93832,1.07239 l -6.94933,0 -1.41983,1.29151 -1.41984,1.2916 6.19535,0.0124 c 3.40745,0.01 6.19537,0.18292 6.19537,0.391 0,0.20798 -0.86368,0.62003 -1.91925,0.91556 -1.05559,0.29554 -2.474,1.1164 -3.15203,1.82409 l -1.23278,1.28674 0,19.25157 c 0,15.0322 0.12232,19.399 0.55814,19.924 1.58155,1.90558 13.22487,2.13328 17.98319,0.3515 3.56751,-1.3358 6.12632,-3.7923 8.07812,-7.755 2.07108,-4.2048 2.25494,-3.2897 0.85503,4.2561 l -1.00821,5.43448 -20.4067,0.1046 c -13.37701,0.069 -20.18206,-0.041 -19.75456,-0.3194 z m 27.88942,-67.73229 c 1.58983,-0.97291 4.97126,-2.88001 7.51425,-4.238 4.10924,-2.19437 4.59077,-2.57276 4.32811,-3.40104 -0.93455,-2.94689 -5.77382,-14.39692 -6.05676,-14.33068 -0.39411,0.0923 -9.7689,21.68774 -10.53128,24.2595 -0.2424,0.8177 -0.20193,0.8263 0.79988,0.17021 0.58035,-0.38008 2.35596,-1.48707 3.9458,-2.45999 z m 14.08684,67.80299 c 0.22716,-0.1988 1.24529,-0.5982 2.26251,-0.8875 3.45264,-0.98198 3.35214,-0.3603 3.48461,-21.55618 0.11121,-17.79617 0.076,-18.78086 -0.71622,-20.06475 -0.61158,-0.99102 -1.39431,-1.50607 -2.94291,-1.93651 l -2.10973,-0.5864 3.26071,-0.28915 c 4.93365,-0.43749 16.22538,-0.42882 20.82467,0.0162 6.96357,0.67348 11.12399,3.40017 12.81709,8.40041 0.87291,2.5779 0.88362,3.8973 0.0543,6.6899 -0.90513,3.0478 -3.39416,5.7245 -6.79184,7.3039 -1.52621,0.7094 -2.8398,1.3281 -2.91907,1.3748 -0.0793,0.047 0.60803,0.8599 1.52736,1.8072 0.91932,0.9473 2.84279,3.4584 4.27437,5.5803 6.60188,9.785 8.85355,12.1853 12.72119,13.56118 l 2.05502,0.7309 -6.46254,0.1206 c -4.56317,0.085 -6.64822,-0.033 -7.09433,-0.4038 -0.34749,-0.2884 -2.60179,-3.42908 -5.00957,-6.97948 -4.21206,-6.2108 -9.09191,-12.0502 -10.86152,-12.9973 -0.46519,-0.249 -1.81102,-0.6053 -2.99071,-0.7918 l -2.1449,-0.339 0,8.8811 0,8.8811 1.24858,1.2486 c 0.68672,0.68668 1.81167,1.37038 2.49989,1.51928 3.73191,0.8071 2.26043,1.0213 -7.20483,1.0487 -5.60734,0.016 -10.0093,-0.1332 -9.78213,-0.3321 z m 20.84683,-22.75608 c 6.56231,-1.3796 10.33896,-6.9813 8.93533,-13.2533 -0.4263,-1.90487 -0.9916,-2.93117 -2.50695,-4.55121 -2.62774,-2.80929 -5.44397,-3.85843 -10.35755,-3.85843 l -3.67917,0 0,11.32544 0,11.3254 2.71727,-0.2655 c 1.49449,-0.146 3.69548,-0.4711 4.89107,-0.7224 z"
         style="fill:#4d4d4d" />
      <flowRoot
         transform="translate(-45.87037,11.966183)"
         style="font-size:72px;font-style:normal;font-variant:normal;font-weight:normal;font-stretch:normal;line-height:125%;letter-spacing:0px;word-spacing:0px;fill:#808080;fill-opacity:1;stroke:none;font-family:Ubuntu;-inkscape-font-specification:Ubuntu"
         id="flowRoot3822"
         xml:space="preserve"
         inkscape:export-filename="/home/cpt/eac_dev/ieee_vr_vuforia/images/ualr_logo.png"
         inkscape:export-xdpi="90"
         inkscape:export-ydpi="90"><flowRegion
           id="flowRegion3824"><rect
             y="892.81305"
             x="562.41064"
             height="91.740753"
             width="390.89536"
             id="rect3826"
             style="fill:#808080" /></flowRegion><flowPara
           style="font-size:32px;font-style:normal;font-variant:normal;font-weight:normal;font-stretch:normal;fill:#808080;font-family:Ubuntu;-inkscape-font-specification:Ubuntu"
           id="flowPara3828">UALR</flowPara><flowPara
           id="flowPara3830"
           style="font-size:32px;font-style:normal;font-variant:normal;font-weight:normal;font-stretch:normal;fill:#808080;font-family:Ubuntu;-inkscape-font-specification:Ubuntu">Emerging Analytics Center</flowPara></flowRoot>    </g>
  </g>
</svg>
